<?xml version="1.0" encoding="UTF-8"?>
<svg version="1.1" xmlns="http://www.w3.org/2000/svg" width="316" height="122">
<path d="M0 0 C104.28 0 208.56 0 316 0 C316 40.26 316 80.52 316 122 C211.72 122 107.44 122 0 122 C0 81.74 0 41.48 0 0 Z " fill="#FDFDFD" transform="translate(0,0)"/>
<path d="M0 0 C4.95 0 9.9 0 15 0 C12.84588354 7.19133393 10.68026502 14.3790504 8.5 21.5625 C8.20480469 22.53896484 7.90960938 23.51542969 7.60546875 24.52148438 C6.01415741 29.76159549 4.36658867 34.96696142 2.55151367 40.13427734 C1.86091133 42.47052484 1.76589361 44.58090061 2 47 C4.70931419 46.84518205 6.46584039 46.51827919 8.4453125 44.59765625 C9.67679642 43.10228292 10.8429837 41.5537076 12 40 C13.485 40.495 13.485 40.495 15 41 C12.30782357 47.39391902 9.23332339 52.56235321 3 56 C-0.84893609 56.84094402 -4.1558576 56.87230148 -8 56 C-11.41311667 53.47429367 -12.66637768 52.00086696 -14 48 C-14.70576172 48.61488281 -14.70576172 48.61488281 -15.42578125 49.2421875 C-16.04839844 49.78101563 -16.67101562 50.31984375 -17.3125 50.875 C-17.92738281 51.40867188 -18.54226562 51.94234375 -19.17578125 52.4921875 C-24.0842488 56.54929344 -27.68397776 56.47346021 -33.8828125 56.390625 C-37 56 -37 56 -40.25 53.6875 C-42 51 -42 51 -43 48 C-43.45890625 48.40992188 -43.9178125 48.81984375 -44.390625 49.2421875 C-45.00421875 49.78101563 -45.6178125 50.31984375 -46.25 50.875 C-46.85328125 51.40867188 -47.4565625 51.94234375 -48.078125 52.4921875 C-52.93096286 56.29949525 -57.06878725 56.48303512 -63.13671875 56.38671875 C-66 56 -66 56 -69.25 53.75 C-71 51 -71 51 -71 47 C-71.66 47 -72.32 47 -73 47 C-73.33 47.99 -73.66 48.98 -74 50 C-75.7421875 51.3515625 -75.7421875 51.3515625 -77.875 52.625 C-78.92300781 53.26308594 -78.92300781 53.26308594 -79.9921875 53.9140625 C-84.82317544 56.52693147 -89.63741953 56.58804074 -95 56 C-97.625 54.625 -97.625 54.625 -99 52 C-101.26283178 41.14719517 -95.31241051 28.75034752 -91 19 C-86.38 19 -81.76 19 -77 19 C-77.67187381 22.35936907 -78.34977451 25.29707584 -79.41015625 28.50390625 C-79.67763672 29.32697266 -79.94511719 30.15003906 -80.22070312 30.99804688 C-80.78343907 32.71236774 -81.34855722 34.4259084 -81.91601562 36.13867188 C-82.18220703 36.96044922 -82.44839844 37.78222656 -82.72265625 38.62890625 C-82.96765869 39.37213135 -83.21266113 40.11535645 -83.46508789 40.88110352 C-84.16317953 43.2821588 -84.16317953 43.2821588 -84 47 C-78.68715239 46.67800924 -75.51270938 43.71368529 -72 40 C-68.8932153 35.11790976 -67.54283072 29.53668331 -66 24 C-67.32 24 -68.64 24 -70 24 C-69.67 22.35 -69.34 20.7 -69 19 C-67.02 19 -65.04 19 -63 19 C-62.896875 17.824375 -62.79375 16.64875 -62.6875 15.4375 C-62.17085042 11.17514097 -60.8491639 7.85912466 -59 4 C-54.38 3.67 -49.76 3.34 -45 3 C-46.16327459 8.40091774 -47.42295856 13.70564659 -49 19 C-44.38 18.67 -39.76 18.34 -35 18 C-34.484375 15.89625 -33.96875 13.7925 -33.4375 11.625 C-31.46822242 5.26112404 -31.46822242 5.26112404 -27.75 3.1875 C-23.80395624 2.99019781 -19.94909847 2.86143514 -16 3 C-16.72724594 8.52706913 -18.33445973 13.69960141 -20 19 C-17.03 19 -14.06 19 -11 19 C-11.495 21.475 -11.495 21.475 -12 24 C-15.3 24.33 -18.6 24.66 -22 25 C-22.84416163 27.53851462 -23.67547299 30.08010854 -24.5 32.625 C-24.73847656 33.33785156 -24.97695312 34.05070312 -25.22265625 34.78515625 C-26.57381808 38.99306024 -27.28250044 42.52236798 -27 47 C-21.07060954 46.64423657 -18.19369925 45.19369925 -14 41 C-10.49086098 36.22079727 -9.20093885 30.6143477 -7.5625 25 C-6.94804001 22.93616119 -6.33345731 20.87235891 -5.71875 18.80859375 C-5.42484375 17.81327637 -5.1309375 16.81795898 -4.828125 15.79248047 C-3.76502537 12.20765334 -2.66767131 8.63457154 -1.5625 5.0625 C-1.046875 3.391875 -0.53125 1.72125 0 0 Z " fill="#0E1013" transform="translate(224,29)"/>
<path d="M0 0 C-3.42857143 16.85714286 -3.42857143 16.85714286 -7 24 C0.17527492 21.05047987 5.32916698 18.01703454 9 11 C9.46981399 9.38404639 9.90805426 7.7585406 10.3125 6.125 C10.97265625 3.85546875 10.97265625 3.85546875 12 2 C16.81915093 -0.52153554 22.68426475 -0.2262015 28 0 C27.75354997 7.63995079 25.92704027 13.06472369 21 19 C16.97969266 22.44274206 12.74732477 25.62633762 8 28 C8.40752328 39.41065186 13.18974243 50.74303955 19.1171875 60.3984375 C20 62 20 62 20 64 C14.72 66.31 9.44 68.62 4 71 C-1.9797771 58.24314219 -2.39029856 44.87728212 -2 31 C-5.96 31.495 -5.96 31.495 -10 32 C-10.08636719 32.53625 -10.17273438 33.0725 -10.26171875 33.625 C-11.75997224 41.98223046 -14.38060626 49.94186506 -17 58 C-21.95 58 -26.9 58 -32 58 C-29.92143756 49.07440833 -27.32742828 40.36357006 -24.63427734 31.60693359 C-22.32550721 24.09696611 -20.11171928 16.5680871 -18 9 C-26.34326035 11.66896747 -26.34326035 11.66896747 -32 18 C-32.25022167 23.08784056 -32.0764816 26.2971385 -30 31 C-31.62017842 32.33918806 -33.24629343 33.6711969 -34.875 35 C-35.77992187 35.7425 -36.68484375 36.485 -37.6171875 37.25 C-40 39 -40 39 -42 39 C-46.20848787 33.47635966 -48.60049287 28.13942778 -48.37109375 21.08203125 C-47.5176332 16.29366835 -44.89077568 12.61826921 -41.23828125 9.4921875 C-33.57837129 4.30271503 -24.76120375 2.85450314 -15.8125 1.3125 C-15.05211426 1.18085449 -14.29172852 1.04920898 -13.50830078 0.91357422 C-8.9427836 0.17373141 -4.62427259 -0.12862215 0 0 Z " fill="#0F1114" transform="translate(104,27)"/>
<path d="M0 0 C1.93166016 0.01740234 1.93166016 0.01740234 3.90234375 0.03515625 C5.19269531 0.04417969 6.48304688 0.05320313 7.8125 0.0625 C8.81152344 0.07410156 9.81054688 0.08570313 10.83984375 0.09765625 C9.4749887 9.02308991 7.10376542 15.5815506 0.42578125 21.9375 C-2.00862684 23.71833548 -4.19254085 24.03021045 -7.16015625 24.09765625 C-7.82015625 23.76765625 -8.48015625 23.43765625 -9.16015625 23.09765625 C-7.6101573 0.23517173 -7.6101573 0.23517173 0 0 Z " fill="#F8F8F9" transform="translate(176.16015625,52.90234375)"/>
<path d="M0 0 C3.21279089 2.71851537 3.90640581 4.40723678 4.5625 8.5625 C4 12 4 12 1.875 14.4375 C-1.49379821 16.26836859 -3.22527006 16.64250722 -7 16 C-9.375 14.5 -9.375 14.5 -11 12 C-11.81157964 7.95866467 -11.63559176 5.01694681 -9.4375 1.5 C-6.02467068 -0.60020266 -3.93311127 -0.63210717 0 0 Z " fill="#0F1114" transform="translate(148,26)"/>
</svg>
