<svg width="274" height="45" viewBox="0 0 274 45" fill="none" xmlns="http://www.w3.org/2000/svg">
<path fill-rule="evenodd" clip-rule="evenodd" d="M27.8297 0H15.2168C14.2363 0 13.3895 0.558242 12.9438 1.41708L0.152694 32.4641C-0.382126 33.7094 0.55381 34.9117 1.93543 34.9117H22.4815C23.3728 34.9117 24.1751 35.5988 24.1751 36.4576V43.2854C24.2642 44.1013 25.6458 44.3589 26.0024 43.5001L35.0497 22.1151C35.2726 21.6427 34.916 21.0845 34.3366 21.0845H23.3283C22.1695 21.0845 21.3672 19.925 21.8129 18.8944L28.9884 1.67473C29.345 0.858838 28.721 0 27.8297 0ZM37.4237 2.03729L33.1337 11.9266C32.6959 12.9453 33.4839 14.0912 34.6221 14.1337H46.8354C47.4045 14.1337 47.7985 14.7703 47.4921 15.2797L37.2048 32.2146C36.5919 33.2333 37.3799 34.549 38.6056 34.549H45.0406C49.3744 34.2095 53.6644 33.2757 57.3853 31.0687C60.3183 29.3709 62.7697 26.9516 64.3894 24.023C66.0091 21.0095 66.8409 17.5716 66.7095 14.1761C66.6658 10.7807 65.3087 7.47006 62.9886 4.96589C61.8067 3.73503 60.4934 2.54661 58.9175 1.86752C56.5974 0.763984 54.0584 0 51.4319 0H40.6193C39.2185 0 37.949 0.806425 37.4237 2.03729Z" fill="black"/>
<path d="M91.8007 27.5846H97.6247V31.0166H87.3547V12.7646H91.8007V27.5846ZM106.349 31.2246C104.928 31.2246 103.645 30.9213 102.501 30.3146C101.375 29.7079 100.482 28.8413 99.8233 27.7146C99.182 26.5879 98.8613 25.2706 98.8613 23.7626C98.8613 22.2719 99.1906 20.9633 99.8493 19.8366C100.508 18.6926 101.409 17.8173 102.553 17.2106C103.697 16.6039 104.98 16.3006 106.401 16.3006C107.823 16.3006 109.105 16.6039 110.249 17.2106C111.393 17.8173 112.295 18.6926 112.953 19.8366C113.612 20.9633 113.941 22.2719 113.941 23.7626C113.941 25.2533 113.603 26.5706 112.927 27.7146C112.269 28.8413 111.359 29.7079 110.197 30.3146C109.053 30.9213 107.771 31.2246 106.349 31.2246ZM106.349 27.3766C107.199 27.3766 107.918 27.0646 108.507 26.4406C109.114 25.8166 109.417 24.9239 109.417 23.7626C109.417 22.6013 109.123 21.7086 108.533 21.0846C107.961 20.4606 107.251 20.1486 106.401 20.1486C105.535 20.1486 104.815 20.4606 104.243 21.0846C103.671 21.6913 103.385 22.5839 103.385 23.7626C103.385 24.9239 103.663 25.8166 104.217 26.4406C104.789 27.0646 105.5 27.3766 106.349 27.3766ZM121.812 16.3006C122.835 16.3006 123.727 16.5086 124.49 16.9246C125.27 17.3406 125.868 17.8866 126.284 18.5626V16.5086H130.73V30.9906C130.73 32.3253 130.461 33.5299 129.924 34.6046C129.404 35.6966 128.598 36.5633 127.506 37.2046C126.431 37.8459 125.088 38.1666 123.476 38.1666C121.327 38.1666 119.585 37.6553 118.25 36.6326C116.915 35.6273 116.153 34.2579 115.962 32.5246H120.356C120.495 33.0793 120.824 33.5126 121.344 33.8246C121.864 34.1539 122.505 34.3186 123.268 34.3186C124.187 34.3186 124.915 34.0499 125.452 33.5126C126.007 32.9926 126.284 32.1519 126.284 30.9906V28.9366C125.851 29.6126 125.253 30.1673 124.49 30.6006C123.727 31.0166 122.835 31.2246 121.812 31.2246C120.616 31.2246 119.533 30.9213 118.562 30.3146C117.591 29.6906 116.82 28.8153 116.248 27.6886C115.693 26.5446 115.416 25.2273 115.416 23.7366C115.416 22.2459 115.693 20.9373 116.248 19.8106C116.82 18.6839 117.591 17.8173 118.562 17.2106C119.533 16.6039 120.616 16.3006 121.812 16.3006ZM126.284 23.7626C126.284 22.6533 125.972 21.7779 125.348 21.1366C124.741 20.4953 123.996 20.1746 123.112 20.1746C122.228 20.1746 121.474 20.4953 120.85 21.1366C120.243 21.7606 119.94 22.6273 119.94 23.7366C119.94 24.8459 120.243 25.7299 120.85 26.3886C121.474 27.0299 122.228 27.3506 123.112 27.3506C123.996 27.3506 124.741 27.0299 125.348 26.3886C125.972 25.7473 126.284 24.8719 126.284 23.7626ZM140.55 31.2246C139.129 31.2246 137.846 30.9213 136.702 30.3146C135.576 29.7079 134.683 28.8413 134.024 27.7146C133.383 26.5879 133.062 25.2706 133.062 23.7626C133.062 22.2719 133.392 20.9633 134.05 19.8366C134.709 18.6926 135.61 17.8173 136.754 17.2106C137.898 16.6039 139.181 16.3006 140.602 16.3006C142.024 16.3006 143.306 16.6039 144.45 17.2106C145.594 17.8173 146.496 18.6926 147.154 19.8366C147.813 20.9633 148.142 22.2719 148.142 23.7626C148.142 25.2533 147.804 26.5706 147.128 27.7146C146.47 28.8413 145.56 29.7079 144.398 30.3146C143.254 30.9213 141.972 31.2246 140.55 31.2246ZM140.55 27.3766C141.4 27.3766 142.119 27.0646 142.708 26.4406C143.315 25.8166 143.618 24.9239 143.618 23.7626C143.618 22.6013 143.324 21.7086 142.734 21.0846C142.162 20.4606 141.452 20.1486 140.602 20.1486C139.736 20.1486 139.016 20.4606 138.444 21.0846C137.872 21.6913 137.586 22.5839 137.586 23.7626C137.586 24.9239 137.864 25.8166 138.418 26.4406C138.99 27.0646 139.701 27.3766 140.55 27.3766ZM162.849 12.7646C164.773 12.7646 166.454 13.1459 167.893 13.9086C169.332 14.6713 170.441 15.7459 171.221 17.1326C172.018 18.5019 172.417 20.0879 172.417 21.8906C172.417 23.6759 172.018 25.2619 171.221 26.6486C170.441 28.0353 169.323 29.1099 167.867 29.8726C166.428 30.6353 164.756 31.0166 162.849 31.0166H156.011V12.7646H162.849ZM162.563 27.1686C164.244 27.1686 165.553 26.7093 166.489 25.7906C167.425 24.8719 167.893 23.5719 167.893 21.8906C167.893 20.2093 167.425 18.9006 166.489 17.9646C165.553 17.0286 164.244 16.5606 162.563 16.5606H160.457V27.1686H162.563ZM177.138 15.0006C176.358 15.0006 175.716 14.7753 175.214 14.3246C174.728 13.8566 174.486 13.2846 174.486 12.6086C174.486 11.9153 174.728 11.3433 175.214 10.8926C175.716 10.4246 176.358 10.1906 177.138 10.1906C177.9 10.1906 178.524 10.4246 179.01 10.8926C179.512 11.3433 179.764 11.9153 179.764 12.6086C179.764 13.2846 179.512 13.8566 179.01 14.3246C178.524 14.7753 177.9 15.0006 177.138 15.0006ZM179.348 16.5086V31.0166H174.902V16.5086H179.348ZM189.85 20.2006H187.458V31.0166H183.012V20.2006H181.4V16.5086H183.012V16.0926C183.012 14.3073 183.523 12.9553 184.546 12.0366C185.568 11.1006 187.068 10.6326 189.044 10.6326C189.373 10.6326 189.616 10.6413 189.772 10.6586V14.4286C188.922 14.3766 188.324 14.4979 187.978 14.7926C187.631 15.0873 187.458 15.6159 187.458 16.3786V16.5086H189.85V20.2006ZM199.219 20.2006H196.827V31.0166H192.381V20.2006H190.769V16.5086H192.381V16.0926C192.381 14.3073 192.892 12.9553 193.915 12.0366C194.937 11.1006 196.437 10.6326 198.413 10.6326C198.742 10.6326 198.985 10.6413 199.141 10.6586V14.4286C198.291 14.3766 197.693 14.4979 197.347 14.7926C197 15.0873 196.827 15.6159 196.827 16.3786V16.5086H199.219V20.2006ZM215.634 16.5086V31.0166H211.188V29.0406C210.737 29.6819 210.122 30.2019 209.342 30.6006C208.579 30.9819 207.73 31.1726 206.794 31.1726C205.684 31.1726 204.705 30.9299 203.856 30.4446C203.006 29.9419 202.348 29.2226 201.88 28.2866C201.412 27.3506 201.178 26.2499 201.178 24.9846V16.5086H205.598V24.3866C205.598 25.3573 205.849 26.1113 206.352 26.6486C206.854 27.1859 207.53 27.4546 208.38 27.4546C209.246 27.4546 209.931 27.1859 210.434 26.6486C210.936 26.1113 211.188 25.3573 211.188 24.3866V16.5086H215.634ZM224.729 31.2246C223.464 31.2246 222.337 31.0079 221.349 30.5746C220.361 30.1413 219.581 29.5519 219.009 28.8066C218.437 28.0439 218.117 27.1946 218.047 26.2586H222.441C222.493 26.7613 222.727 27.1686 223.143 27.4806C223.559 27.7926 224.071 27.9486 224.677 27.9486C225.232 27.9486 225.657 27.8446 225.951 27.6366C226.263 27.4113 226.419 27.1253 226.419 26.7786C226.419 26.3626 226.203 26.0593 225.769 25.8686C225.336 25.6606 224.634 25.4353 223.663 25.1926C222.623 24.9499 221.757 24.6986 221.063 24.4386C220.37 24.1613 219.772 23.7366 219.269 23.1646C218.767 22.5753 218.515 21.7866 218.515 20.7986C218.515 19.9666 218.741 19.2126 219.191 18.5366C219.659 17.8433 220.335 17.2973 221.219 16.8986C222.121 16.4999 223.187 16.3006 224.417 16.3006C226.237 16.3006 227.667 16.7513 228.707 17.6526C229.765 18.5539 230.371 19.7499 230.527 21.2406H226.419C226.35 20.7379 226.125 20.3393 225.743 20.0446C225.379 19.7499 224.894 19.6026 224.287 19.6026C223.767 19.6026 223.369 19.7066 223.091 19.9146C222.814 20.1053 222.675 20.3739 222.675 20.7206C222.675 21.1366 222.892 21.4486 223.325 21.6566C223.776 21.8646 224.469 22.0726 225.405 22.2806C226.48 22.5579 227.355 22.8353 228.031 23.1126C228.707 23.3726 229.297 23.8059 229.799 24.4126C230.319 25.0019 230.588 25.7993 230.605 26.8046C230.605 27.6539 230.363 28.4166 229.877 29.0926C229.409 29.7513 228.725 30.2713 227.823 30.6526C226.939 31.0339 225.908 31.2246 224.729 31.2246ZM235.561 15.0006C234.781 15.0006 234.14 14.7753 233.637 14.3246C233.152 13.8566 232.909 13.2846 232.909 12.6086C232.909 11.9153 233.152 11.3433 233.637 10.8926C234.14 10.4246 234.781 10.1906 235.561 10.1906C236.324 10.1906 236.948 10.4246 237.433 10.8926C237.936 11.3433 238.187 11.9153 238.187 12.6086C238.187 13.2846 237.936 13.8566 237.433 14.3246C236.948 14.7753 236.324 15.0006 235.561 15.0006ZM237.771 16.5086V31.0166H233.325V16.5086H237.771ZM247.597 31.2246C246.176 31.2246 244.893 30.9213 243.749 30.3146C242.623 29.7079 241.73 28.8413 241.071 27.7146C240.43 26.5879 240.109 25.2706 240.109 23.7626C240.109 22.2719 240.439 20.9633 241.097 19.8366C241.756 18.6926 242.657 17.8173 243.801 17.2106C244.945 16.6039 246.228 16.3006 247.649 16.3006C249.071 16.3006 250.353 16.6039 251.497 17.2106C252.641 17.8173 253.543 18.6926 254.201 19.8366C254.86 20.9633 255.189 22.2719 255.189 23.7626C255.189 25.2533 254.851 26.5706 254.175 27.7146C253.517 28.8413 252.607 29.7079 251.445 30.3146C250.301 30.9213 249.019 31.2246 247.597 31.2246ZM247.597 27.3766C248.447 27.3766 249.166 27.0646 249.755 26.4406C250.362 25.8166 250.665 24.9239 250.665 23.7626C250.665 22.6013 250.371 21.7086 249.781 21.0846C249.209 20.4606 248.499 20.1486 247.649 20.1486C246.783 20.1486 246.063 20.4606 245.491 21.0846C244.919 21.6913 244.633 22.5839 244.633 23.7626C244.633 24.9239 244.911 25.8166 245.465 26.4406C246.037 27.0646 246.748 27.3766 247.597 27.3766ZM266.388 16.3526C268.087 16.3526 269.439 16.9073 270.444 18.0166C271.467 19.1086 271.978 20.6166 271.978 22.5406V31.0166H267.558V23.1386C267.558 22.1679 267.307 21.4139 266.804 20.8766C266.301 20.3393 265.625 20.0706 264.776 20.0706C263.927 20.0706 263.251 20.3393 262.748 20.8766C262.245 21.4139 261.994 22.1679 261.994 23.1386V31.0166H257.548V16.5086H261.994V18.4326C262.445 17.7913 263.051 17.2886 263.814 16.9246C264.577 16.5433 265.435 16.3526 266.388 16.3526Z" fill="black"/>
</svg>
