<?xml version="1.0" encoding="UTF-8"?>
<svg id="Layer_2" data-name="Layer 2" xmlns="http://www.w3.org/2000/svg" viewBox="0 0 2561.57 337.34">
  <defs>
    <style>
      .cls-1 {
        fill: #fff;
      }
    </style>
  </defs>
  <g id="Layer_1-2" data-name="Layer 1">
    <g>
      <g>
        <path class="cls-1" d="M2028.91,113.44c-18.53-10.71-38.49-16.06-59.91-16.06s-40.63,5.2-59.04,15.6c-18.41,10.4-33.12,24.55-44.13,42.46-11.01,17.91-16.52,37.37-16.52,58.4s5.26,41.65,15.77,60.71c10.51,19.06,24.86,34.3,43.04,45.69,18.17,11.4,38.01,17.1,59.5,17.1,8.4,0,15.95-.62,22.65-1.85v-88.96c-6.78,5.01-14.52,7.51-23.22,7.51-8.7-.46-16.08-3.87-22.13-10.23-6.05-6.35-9.07-14-9.07-22.93s3.37-15.96,10.11-22.24c6.74-6.28,14.42-9.42,23.05-9.42,9.94,0,17.77,3.64,23.51,10.92,5.74,7.28,8.61,15.93,8.61,25.94v106.52h88.5v-116c0-21.33-5.49-41.19-16.46-59.56-10.98-18.37-25.73-32.91-44.25-43.61Z"/>
        <path class="cls-1" d="M2331.79,82.24c12.1,0,22.31-3.85,30.6-11.54,8.33-7.69,12.48-17.57,12.48-29.58,0-11.33-4.32-21.03-12.95-29.06-8.59-8.04-18.68-12.05-30.13-12.05s-21.33,4.02-30.05,12.1c-8.72,8.12-13.04,17.78-13.04,29.02,0,12.01,4.1,21.88,12.35,29.58,8.25,7.69,18.46,11.54,30.73,11.54Z"/>
        <path class="cls-1" d="M2545.12,157.03c-10.99-18.34-25.73-32.87-44.28-43.6-18.51-10.69-38.47-16.07-59.88-16.07s-40.65,5.21-59.03,15.6c-2.44,1.37-4.79,2.82-7.05,4.32v20.96h-24.32c7.1-8,15.19-14.99,24.32-20.96v-15.17h-86.64v230.51h86.64v-21.24c-4.72-3.13-9.14-6.56-13.31-10.23h13.31v10.23c.94.64,1.88,1.24,2.86,1.84,18.17,11.41,34.79,15.77,55.95,19.62,11.75,2.14,18.89,2.14,28.51,2.65v-88.95c-6.75,5-14.49,7.52-23.21,7.52-8.72-.47-16.07-3.89-22.14-10.26-6.03-6.33-9.06-13.98-9.06-22.91s3.38-15.99,10.13-22.23c6.71-6.28,14.4-9.45,23.04-9.45,9.92,0,17.78,3.63,23.51,10.94,5.73,7.27,8.59,15.9,8.59,25.94v106.51h88.52v-116c0-21.33-5.51-41.2-16.46-59.58ZM2374.87,288.92h-25.35c-2.54-2.97-4.98-6.06-7.25-9.3h32.6v9.3ZM2374.87,267.39h-40.24c-1.79-3.26-3.3-6.31-4.67-9.3h44.92v9.3ZM2374.87,245.87h-49.61c-.93-3.07-1.69-6.15-2.26-9.3h51.88v9.3ZM2374.87,224.34h-53.3c-.18-2.95-.3-6.02-.32-9.3h53.62v9.3ZM2374.87,202.82h-53.06c.3-3.13.72-6.22,1.28-9.28h51.78v9.28ZM2374.87,181.27h-48.8c.96-3.13,2.07-6.21,3.32-9.26h45.48v9.26ZM2374.87,159.75h-39.55c.8-1.44,1.58-2.88,2.45-4.29,1.05-1.7,2.14-3.35,3.25-4.99h33.85v9.28Z"/>
        <path class="cls-1" d="M2275.04,246.15c-1.33-9.79-4.76-19-10.18-27.35-7.08-11.1-16.74-19.95-28.71-26.34-9.8-5.19-20.23-8.26-30.8-9.09-2.14-.24-4.38-.35-7.27-.35h-18.74c-1.19-.28-2.22-.78-3.21-1.54-1.19-.92-1.67-1.96-1.67-3.57,0-2.28.78-3.19,1.4-3.67,1.5-1.14,3.44-1.7,5.92-1.7h87.99v-69.77h-82.37c-10.98,0-21.53,1.78-31.35,5.3-9.89,3.54-18.8,8.73-26.54,15.46-7.75,6.88-13.82,15.13-18.03,24.48-4.3,9.38-6.47,19.99-6.47,31.53,0,3.35.24,6.83.73,10.35,1.33,9.72,4.76,18.93,10.19,27.37,7.12,11.08,16.8,19.91,28.76,26.26,9.53,5.06,19.69,8.12,30.13,9.1,2.59.26,5.23.4,7.89.4h19c1.04.27,1.99.75,2.95,1.48,1.19.92,1.67,1.96,1.67,3.58,0,2.27-.74,3.15-1.4,3.67-1.5,1.14-3.41,1.69-5.86,1.69h-88.74v69.77h83.06c11.04,0,21.58-1.79,31.32-5.29,9.79-3.44,18.72-8.63,26.57-15.48,7.79-6.92,13.87-15.17,18.03-24.48,4.3-9.38,6.47-19.97,6.47-31.47,0-3.37-.25-6.86-.73-10.36Z"/>
      </g>
      <g>
        <path class="cls-1" d="M411.17,332.88h88.51v-136.55s-2.27-15.13,13.62-15.13,15.89,14.37,15.89,14.37v137.31h83.97v-157.17s-11.35-77.73-101-77.73-101,77.73-101,77.73v157.17Z"/>
        <rect class="cls-1" x="628.29" y="18.55" width="89.27" height="314.34"/>
        <polygon class="cls-1" points="846.93 97.98 756.9 97.98 717.56 179.68 774.3 332.88 868.86 332.88 805.32 182.71 846.93 97.98"/>
        <path class="cls-1" d="M1345.21,202.38l2.27,130.5h88.51v-130.5s-3.9-14.89,17.67-14.89h20.43v-89.74h-38.59s-90.29.79-90.29,104.63Z"/>
        <path class="cls-1" d="M1590.4,229.19h132.61c.48-4.36.73-10.02.73-14.51,0-65.8-53.34-119.15-119.15-119.15s-119.15,47.47-119.15,119.15,53.34,119.15,119.15,119.15c29.53,0,56.55-10.74,77.36-28.53l-48.13-58.27c-7.27,8.97-17.2,14.55-27.53,14.55-20.37,0-34.61-21.64-34.61-48.32s16.51-48.33,36.88-48.33c13.14,0,26.66,10.59,31.19,24.83h-49.35v39.42Z"/>
        <path class="cls-1" d="M1224.43,97.98s-25.52-2.17-53.72,6.94v23.1h-40.7c12.43-11.47,26.88-18.64,40.7-23.1v-6.94h-86.24v142.23s-.35,14.14-13.21,14.14c-11.78,0-11.75-13.38-11.75-13.38V97.99h0s-88.51,0-88.51,0h0v142.98s.02,13.38-11.75,13.38c-12.86,0-13.21-14.14-13.21-14.14V97.98h-86.24v152.82c0,62.79,45.68,82.08,86.53,82.08s67.8-27.99,67.8-27.99l1.13-5.17,1.14,5.17s26.95,27.99,67.8,27.99c22.69,0,46.86-5.97,63.87-22.03-9.74-5.97-18.97-13.55-26.86-23.15h42.76c-3.93,9.35-9.38,17-15.9,23.15,40.41,24.78,89.7,22.03,89.7,22.03v-87.95c-7.3,3.9-22.16,3.69-22.16,3.69-33.8-1.51-32.02-33.19-32.02-33.19,0,0,.76-31.96,32.02-31.96s33.8,31.96,33.8,31.96v117.45h85.11v-94.19c9.08-141.86-110.07-140.71-110.07-140.71ZM1170.54,256.97h-66.69c-1.4-3.88-2.62-7.96-3.66-12.23h70.52v6.07c0,2.11-.07,4.15-.17,6.17ZM1098.31,235.47c-.66-3.92-1.18-7.99-1.54-12.23h73.94v12.23h-72.41ZM1096.26,213.98c-.04-1.58-.07-3.17-.07-4.79,0-2.57.07-5.04.18-7.44h74.33v12.23h-74.45ZM1097.14,192.49c.5-4.34,1.18-8.41,2.04-12.23h71.53v12.23h-73.57ZM1101.72,171c1.44-4.39,3.11-8.46,5-12.24h63.99v12.24h-68.99ZM1112.02,149.51c2.84-4.38,5.93-8.42,9.19-12.23h49.51v12.23h-58.69ZM1114.45,278.45c-2.46-3.81-4.73-7.88-6.77-12.23h62.01c-.59,4.32-1.43,8.4-2.5,12.23h-52.74Z"/>
        <path class="cls-1" d="M116.5,332.79c65.44,0,81.7-30.17,81.7-30.17,0,0-3.28-2.81-7.91-8.1h16.63c-5.09,5.33-8.72,8.1-8.72,8.1,37.07,35.18,102.13,29.89,102.13,29.89v-88.13c-49.93,19.29-51.82-24.96-51.82-24.96,0,0-2.65-34.8,31.77-34.8s33.29,35.56,33.29,35.56v112.72h85.11v-142.61c0-38.58-44.25-93.81-116.13-93.81-59.76,0-82.84,31.39-82.84,31.39,0,0,2.64,2.47,6.54,6.97h-13.48c4.12-4.55,6.93-6.97,6.93-6.97-39.72-43.12-101.37-29.88-101.37-29.88v96.84c1.51-4.54,21.94-7.33,21.94-7.33,35.18,0,30.64,33.42,30.64,33.42,0,0-3.4,29.13-34.04,29.13s-31.77-30.64-31.77-30.64V18.55H0v214.47c0,46.15,51.06,99.77,116.5,99.77ZM214.9,285.26h-31.95c-2.58-3.58-5.26-7.65-7.84-12.24h48.15c-2.75,4.59-5.6,8.69-8.36,12.24ZM228.27,263.77h-57.86c-1.75-3.83-3.38-7.91-4.8-12.23h67.72c-1.5,4.34-3.21,8.42-5.05,12.23ZM236.08,242.29h-73.08c-.93-3.92-1.69-7.99-2.2-12.24h77.66c-.57,4.26-1.39,8.33-2.37,12.24ZM185.18,144.09h28.49c2.64,3.57,5.42,7.67,8.16,12.23h-44.8c2.72-4.6,5.5-8.69,8.16-12.23ZM172.05,165.57h54.86c1.93,3.84,3.74,7.94,5.37,12.23h-65.4c1.56-4.34,3.31-8.41,5.17-12.23ZM163.96,187.06h71.4c1.13,3.94,2.06,8.03,2.75,12.24h-76.73c.66-4.24,1.53-8.33,2.59-12.24ZM160.32,208.55h78.86c.15,2.21.26,4.43.26,6.69,0,1.88-.05,3.73-.14,5.55h-79.22c-.06-1.83-.1-3.67-.07-5.55.03-2.27.15-4.5.32-6.69Z"/>
      </g>
    </g>
  </g>
</svg>