<?xml version="1.0" encoding="UTF-8"?>
<svg version="1.1" xmlns="http://www.w3.org/2000/svg" width="420" height="351">
<path d="M0 0 C1.86577635 -0.04270429 1.86577635 -0.04270429 3.76924515 -0.08627129 C6.61541748 0.37423706 6.61541748 0.37423706 8.52106857 2.25309563 C9.61541748 4.37423706 9.61541748 4.37423706 9.74041748 6.68673706 C6.88216905 13.51477497 -0.5490374 18.28687395 -6.32208252 22.62423706 C-7.43015259 23.46220825 -7.43015259 23.46220825 -8.56060791 24.31710815 C-31.91116444 41.84680931 -57.07599841 56.71947509 -83.38458252 69.37423706 C-80.66746248 71.4725513 -78.81750955 72.88381891 -75.38458252 73.37423706 C-74.39458252 73.51861206 -73.40458252 73.66298706 -72.38458252 73.81173706 C-62.5565046 73.58122777 -54.25719843 65.84860481 -47.27520752 59.78048706 C-37.08017263 51.29380937 -27.62280916 48.23994215 -14.38458252 49.37423706 C-6.25863504 51.11849571 -0.62393679 55.10014175 5.61541748 60.37423706 C13.78715734 67.05711365 20.62476573 71.94945705 31.05291748 74.43673706 C32.22854248 74.74611206 33.40416748 75.05548706 34.61541748 75.37423706 C36.02983622 78.20307453 35.9344208 80.24800451 35.61541748 83.37423706 C33.51156887 85.45401417 32.19513622 86.30463267 29.24041748 86.65939331 C16.4910144 85.57797073 7.87253471 79.11160081 -1.39239502 70.94064331 C-8.29771193 65.01793677 -14.26112376 61.89384065 -23.42755127 62.05001831 C-32.10952342 63.00193864 -37.98964712 68.62264148 -44.26885986 74.20114136 C-52.80720772 81.58975867 -62.95519669 86.86710701 -74.44708252 86.31173706 C-85.6216702 85.2912843 -93.4505204 79.69155836 -101.77520752 72.55783081 C-109.47066156 66.11807211 -116.0450557 61.7062147 -126.24786377 61.95236206 C-135.22732989 63.16006112 -142.01090608 70.47832728 -148.76422119 76.03463745 C-157.47522909 83.06521455 -166.97901236 87.45287242 -178.38458252 86.37423706 C-188.70595802 84.38091086 -196.57267349 79.04364816 -204.44708252 72.31173706 C-212.18255676 65.74745319 -217.95477659 61.38291287 -228.47442627 61.90158081 C-236.66470533 63.23181405 -242.38147701 68.90726346 -248.54083252 74.08908081 C-258.19166053 81.84421046 -266.87395745 86.44960227 -279.38458252 86.37423706 C-294.72210041 84.51211022 -306.86844508 75.24038893 -317.89239502 65.05783081 C-318.67356689 64.33724487 -319.45473877 63.61665894 -320.25958252 62.87423706 C-320.93762939 62.22454956 -321.61567627 61.57486206 -322.31427002 60.90548706 C-324.82036322 59.05192379 -326.26492593 58.50826675 -329.38458252 58.37423706 C-340.0581073 61.98788793 -348.8675029 69.21721837 -357.64874268 76.03829956 C-371.43588642 86.64916462 -371.43588642 86.64916462 -379.75958252 86.18673706 C-382.38458252 85.37423706 -382.38458252 85.37423706 -384.38458252 83.37423706 C-384.94613343 78.09565853 -384.94613343 78.09565853 -383.15313721 75.79220581 C-381.09471238 74.14182875 -379.27163799 73.46664575 -376.77520752 72.62423706 C-371.07506281 70.44683974 -366.81257832 67.22955084 -362.13458252 63.37423706 C-360.61001043 62.14324811 -359.08399984 60.9140383 -357.55645752 59.68673706 C-356.84682861 59.11439331 -356.13719971 58.54204956 -355.40606689 57.95236206 C-352.81979834 55.93332342 -350.15094734 54.13625287 -347.38458252 52.37423706 C-349.02912583 46.72710155 -351.70401969 42.0248883 -354.72637939 37.02853394 C-357.32170902 32.4454927 -357.67785134 29.67732349 -356.38458252 24.37423706 C-352.67495837 22.6981305 -349.54492235 22.04591507 -345.4913063 21.78455925 C-344.30399705 21.70394245 -343.1166878 21.62332565 -341.89339948 21.54026592 C-339.94241979 21.42060315 -339.94241979 21.42060315 -337.95202637 21.29852295 C-336.55322323 21.20676049 -335.15446785 21.11426775 -333.75575709 21.02110779 C-329.91239785 20.76726741 -326.06843771 20.52386354 -322.22429872 20.28216004 C-318.07775596 20.0196263 -313.93184316 19.74747423 -309.7858429 19.47653198 C-301.66051342 18.94709051 -293.53463288 18.4266197 -285.40852877 17.90921842 C-275.93630033 17.30580952 -266.46462811 16.69388063 -256.99296436 16.0816827 C-240.07918914 14.9887918 -223.16489391 13.90416417 -206.25030518 12.82394409 C-189.86087157 11.777259 -173.47187444 10.724042 -157.08331299 9.66378784 C-139.22947579 8.50874829 -121.37542414 7.35713479 -103.52097297 6.2116214 C-101.61293774 6.08920278 -99.70490254 5.9667837 -97.79686737 5.84436417 C-96.85817281 5.78414372 -95.91947826 5.72392327 -94.95233841 5.66187795 C-88.36176695 5.23886938 -81.77134657 4.81355593 -75.18097687 4.38741684 C-67.13180843 3.86705938 -59.08239025 3.35077405 -51.03264114 2.83947526 C-46.93118089 2.57887596 -42.82984608 2.3166215 -38.72879982 2.04957962 C-10.5039006 0.21449324 -10.5039006 0.21449324 0 0 Z M-40.65890503 14.12678528 C-42.58327048 14.2482335 -42.58327048 14.2482335 -44.54651201 14.37213522 C-48.07305411 14.59481385 -51.59927839 14.82220311 -55.12546468 15.05043781 C-58.94110321 15.29656816 -62.75702276 15.53826982 -66.57290649 15.78056335 C-74.03181874 16.25489522 -81.49046062 16.73335457 -88.94901057 17.21334641 C-95.00792908 17.60319801 -101.0669398 17.99158531 -107.12601852 18.37893867 C-108.4215826 18.46176643 -108.4215826 18.46176643 -109.74331968 18.54626747 C-111.49803364 18.65844449 -113.25274777 18.77061875 -115.00746207 18.88279027 C-131.43391704 19.93304858 -147.86006351 20.98806924 -164.2861108 22.04468179 C-178.3878589 22.95166265 -192.48987915 23.85430885 -206.59210205 24.75387573 C-222.97700685 25.79905348 -239.36172675 26.84706102 -255.74616754 27.89948946 C-257.4912128 28.01157057 -259.23625834 28.12364732 -260.98130417 28.23571968 C-261.8398853 28.29086117 -262.69846642 28.34600267 -263.58306516 28.40281511 C-269.64153198 28.79171098 -275.70012808 29.17855072 -281.75877762 29.56458855 C-289.1316408 30.03441165 -296.50430076 30.50728241 -303.87671299 30.98413151 C-307.63985363 31.22745169 -311.40307148 31.4693559 -315.16654205 31.70752335 C-319.2380389 31.96522949 -323.30907429 32.22960596 -327.38009644 32.4947052 C-328.58006118 32.56961132 -329.78002593 32.64451745 -331.01635325 32.72169346 C-332.09975438 32.79335242 -333.18315551 32.86501138 -334.29938698 32.93884182 C-335.23990461 32.99921735 -336.18042224 33.05959288 -337.14944041 33.12179798 C-339.4195925 33.24840494 -339.4195925 33.24840494 -341.38458252 34.37423706 C-339.69784334 38.87220819 -337.5678436 43.10310008 -335.38458252 47.37423706 C-334.36751221 47.17894409 -334.36751221 47.17894409 -333.32989502 46.97970581 C-325.6526257 45.84193875 -320.7185559 46.83816151 -314.38458252 51.37423706 C-312.06400578 53.50851968 -309.89934852 55.73733848 -307.73614502 58.03048706 C-299.36517346 66.37364808 -288.3386124 73.71308378 -276.26739502 74.51486206 C-266.59213706 74.17054683 -259.32166979 67.27132866 -252.32208252 61.24923706 C-241.63122774 52.11543785 -232.34029365 49.32869518 -218.38458252 50.37423706 C-208.14677201 52.65414664 -200.1275811 60.09599056 -192.25958252 66.62423706 C-186.5688093 71.19846617 -180.23064246 75.36827358 -172.59552002 74.87033081 C-163.64662835 72.86236395 -156.86949193 67.35436056 -150.19073486 61.42623901 C-139.6136591 52.15255253 -130.27723823 49.5294134 -116.38458252 50.37423706 C-110.55358195 51.52100051 -105.66039176 54.85609529 -100.68145752 57.97189331 C-99.92348877 58.43466675 -99.16552002 58.89744019 -98.38458252 59.37423706 C-97.7920166 59.78069458 -97.19945068 60.1871521 -96.58892822 60.60592651 C-94.32851674 61.63844328 -94.32851674 61.63844328 -91.78863525 60.57003784 C-90.31825806 59.82729614 -90.31825806 59.82729614 -88.81817627 59.06954956 C-87.15045166 58.23617065 -87.15045166 58.23617065 -85.44903564 57.38595581 C-84.23941247 56.75827909 -83.03044468 56.12933798 -81.82208252 55.49923706 C-80.56760588 54.85715238 -79.31304731 54.21522774 -78.05841064 53.57345581 C-44.52910174 36.57961127 -44.52910174 36.57961127 -15.38458252 13.37423706 C-23.84408209 13.2705404 -32.21865069 13.57394663 -40.65890503 14.12678528 Z " fill="#000000" transform="translate(384.38458251953125,264.6257629394531)"/>
<path d="M0 0 C4.52544868 0.06836936 8.10870701 1.49198506 12.10546875 3.515625 C12.82895508 3.87060059 13.55244141 4.22557617 14.29785156 4.59130859 C35.87253761 15.36950592 56.44935715 28.37002816 75.41796875 43.265625 C76.2378125 43.905 77.05765625 44.544375 77.90234375 45.203125 C97.69758906 60.83758627 117.21219545 77.87061485 133.41796875 97.265625 C134.19785156 98.15636719 134.97773438 99.04710938 135.78125 99.96484375 C171.55059579 141.01619138 196.10994934 189.68981173 207.85546875 242.765625 C208.03166748 243.53648437 208.20786621 244.30734375 208.3894043 245.1015625 C209.30203572 249.43668227 209.63399483 252.90107735 208.41796875 257.265625 C207.75796875 257.925625 207.09796875 258.585625 206.41796875 259.265625 C200.52771244 259.265625 195.94048453 257.79695647 190.48046875 255.640625 C139.19836648 235.4967379 81.06621247 234.84599957 30.25390625 256.62158203 C21.2701969 260.65956073 12.33218551 264.75503841 4.17724609 270.31591797 C1.22759893 271.90821987 -1.345565 271.71873027 -4.58203125 271.265625 C-6.58203125 269.265625 -6.58203125 269.265625 -7.00390625 266.0546875 C-6.4919076 261.45618112 -4.68582554 259.07883865 -1.83203125 255.640625 C20.10258503 227.41072711 34.27122747 190.02504052 34.65625 154.0859375 C34.67094078 152.94335732 34.67094078 152.94335732 34.68592834 151.7776947 C34.87116071 133.59990993 34.31270768 116.10681224 30.41796875 98.265625 C30.20897949 97.30237305 29.99999023 96.33912109 29.78466797 95.34667969 C23.43714868 67.09427549 12.71559377 38.6563171 -2.67358398 14.05883789 C-4.87183359 10.38232442 -5.60359872 8.75922587 -5.41015625 4.33203125 C-4.32688438 0.32085947 -4.32688438 0.32085947 0 0 Z M15.41796875 20.265625 C15.68424072 20.86810059 15.9505127 21.47057617 16.22485352 22.09130859 C26.95540524 46.42497635 36.69615811 70.52756049 42.23046875 96.640625 C42.42527832 97.55344238 42.62008789 98.46625977 42.82080078 99.40673828 C45.72859677 113.87398406 46.80426497 128.22801709 46.73046875 142.953125 C46.7283136 143.73521332 46.72615845 144.51730164 46.72393799 145.3230896 C46.57690791 178.74608687 38.50768646 209.34655579 23.08203125 238.98046875 C21.69909365 241.7106343 20.49316728 244.40385921 19.41796875 247.265625 C24.47003844 245.59406283 29.50847286 243.89101148 34.53515625 242.14453125 C55.39373429 234.95674681 55.39373429 234.95674681 65.60546875 232.828125 C66.27239746 232.68898682 66.93932617 232.54984863 67.62646484 232.40649414 C69.88478171 231.97429996 72.14452836 231.61041622 74.41796875 231.265625 C76.13270386 231.00507324 76.13270386 231.00507324 77.88208008 230.73925781 C88.18694768 229.30715755 98.33303025 228.86571954 108.73046875 228.890625 C109.55368622 228.89083649 110.37690369 228.89104797 111.22506714 228.89126587 C126.24724123 228.92949115 140.67002034 230.24960972 155.41796875 233.265625 C156.36397949 233.45817871 157.30999023 233.65073242 158.28466797 233.84912109 C170.91552425 236.49927622 183.17964098 240.19550685 195.41796875 244.265625 C192.15338513 224.38573645 185.51257189 205.65126584 177.41796875 187.265625 C177.09747559 186.52296387 176.77698242 185.78030273 176.44677734 185.01513672 C157.68080471 141.75713845 125.19297925 100.85235404 89.41796875 70.265625 C88.45761719 69.41613281 87.49726563 68.56664062 86.5078125 67.69140625 C68.01804111 51.41862715 47.8314172 37.17897899 26.41796875 25.015625 C25.76538086 24.64453613 25.11279297 24.27344727 24.44042969 23.89111328 C21.45342826 22.23705528 18.74360899 21.00325345 15.41796875 20.265625 Z " fill="#000000" transform="translate(61.58203125,-0.265625)"/>
<path d="M0 0 C39.1881667 12.8697502 76.66316398 45.19288284 101.87890625 77.3203125 C103.81377013 79.76472617 105.82431129 82.12273849 107.87182617 84.47290039 C136.07638802 117.00432682 169.93675984 166.53663318 175 210 C174.0625 212.5625 174.0625 212.5625 172 214 C166.46271288 214.47462461 162.27874773 213.23679239 157.25 211.125 C144.78164269 206.21704416 134.222919 205.35472836 120.9375 207.6875 C117.65457543 208.03674729 116.68032343 207.82778601 114 206 C112.9543457 203.890625 112.9543457 203.890625 112.17578125 201.25 C111.87446289 200.26281982 111.57314453 199.27563965 111.26269531 198.25854492 C110.79234863 196.64556519 110.79234863 196.64556519 110.3125 195 C109.60787612 192.703687 108.90076836 190.40813497 108.19140625 188.11328125 C107.82934082 186.93072754 107.46727539 185.74817383 107.09423828 184.52978516 C92.2674497 136.70164832 70.48304081 91.33436297 38 53 C37.26523438 52.13246094 36.53046875 51.26492187 35.7734375 50.37109375 C23.67522421 36.5679199 10.55833747 23.61035713 -4.609375 13.2109375 C-9.73272059 9.66819853 -9.73272059 9.66819853 -11.25 5.875 C-11 3 -11 3 -9.5 0.5625 C-5.97255249 -1.6421547 -4.02676755 -0.80701746 0 0 Z M43 39 C45.77858015 42.78195631 48.58449724 46.51823575 51.578125 50.1328125 C84.37501191 89.88133565 104.14351756 136.87492472 119.84594727 185.44262695 C120.88126504 188.63399892 121.93405766 191.81874682 123 195 C123.9429895 194.97643433 123.9429895 194.97643433 124.9050293 194.95239258 C147.99644479 194.45182865 147.99644479 194.45182865 159 198 C151.84077964 174.02907809 139.48820192 150.96530022 126 130 C125.33097656 128.94039063 124.66195312 127.88078125 123.97265625 126.7890625 C114.68412942 112.45370397 104.26389012 98.83087974 93 86 C92.36707031 85.2678125 91.73414063 84.535625 91.08203125 83.78125 C89.40090603 81.84237789 87.70296202 79.91970264 86 78 C85.02546875 76.88625 85.02546875 76.88625 84.03125 75.75 C75.20004048 65.76689359 65.98125167 56.28935622 55.515625 48.01171875 C52.41626698 45.53319487 49.48293977 42.89600091 46.55859375 40.21484375 C45.06644935 38.79507954 45.06644935 38.79507954 43 39 Z " fill="#000000" transform="translate(179,43)"/>
</svg>
