<?xml version="1.0" encoding="UTF-8"?>
<svg version="1.1" xmlns="http://www.w3.org/2000/svg" width="1200" height="1200">
<path d="M0 0 C1.83036585 -0.00374261 3.66073009 -0.00834655 5.49109185 -0.01373065 C10.49103507 -0.025901 15.49091108 -0.02570724 20.49086571 -0.02334189 C25.89536431 -0.0229322 31.29984179 -0.03398753 36.70433044 -0.04345703 C47.28282215 -0.06003628 57.86129156 -0.06556522 68.43979518 -0.06668179 C77.04531716 -0.06763392 85.65083181 -0.07175244 94.25635147 -0.07808304 C118.68823915 -0.09568865 143.1201093 -0.10492321 167.55200337 -0.10342209 C169.52573359 -0.10330222 169.52573359 -0.10330222 171.53933716 -0.10317993 C172.85677607 -0.10309817 174.17421499 -0.10301641 175.53157629 -0.10293217 C196.86448279 -0.10211992 218.19730546 -0.12124398 239.53019415 -0.14945666 C261.46765253 -0.17823841 283.40507649 -0.19199399 305.34255421 -0.19026911 C317.64537044 -0.18960694 329.94811257 -0.19502307 342.25091171 -0.21662521 C352.72938641 -0.23490694 363.20775345 -0.23912737 373.68623726 -0.22560637 C379.02380468 -0.2191113 384.36116596 -0.21883307 389.6987133 -0.23631287 C431.17805673 -0.36376128 431.17805673 -0.36376128 449.69754028 4.26742554 C450.92943022 4.56452234 452.16132015 4.86161915 453.43054008 5.16771889 C456.16193768 5.86224688 458.82882457 6.65096351 461.51004028 7.51742554 C462.4525061 7.81407104 463.39497192 8.11071655 464.36599731 8.41635132 C473.46466334 11.36623138 482.12168239 15.04940312 490.69754028 19.26742554 C491.40571899 19.6099939 492.11389771 19.95256226 492.84353638 20.30551147 C538.80114815 42.73558536 574.73246135 84.66867361 591.87722778 132.65023804 C595.2394236 142.63699358 597.63690127 152.94064182 599.69754028 163.26742554 C599.99120483 164.68885864 599.99120483 164.68885864 600.290802 166.13900757 C602.21727039 176.73716152 602.09433942 187.4075608 602.07254028 198.14242554 C602.07172455 199.64676147 602.07172455 199.64676147 602.07089233 201.18148804 C602.0340164 215.94602377 601.45316616 229.9183446 597.69754028 244.26742554 C597.3840564 245.56148315 597.3840564 245.56148315 597.0642395 246.88168335 C588.82425606 280.6933907 571.46706755 312.00166735 547.09597778 336.83383179 C545.74472637 338.21905321 544.42359649 339.63346165 543.10379028 341.04867554 C513.03114661 372.57060324 469.55352359 392.04377779 426.69754028 397.26742554 C427.31347046 397.37175903 427.92940063 397.47609253 428.56399536 397.58358765 C468.65115686 404.55189979 505.36201057 419.73397286 535.69754028 447.26742554 C536.74244511 448.19265975 537.78802805 449.11712867 538.83425903 450.04086304 C556.39843491 465.67689611 570.07076709 484.34758144 580.69754028 505.26742554 C581.05541626 505.9601355 581.41329224 506.65284546 581.78201294 507.36654663 C593.76308192 530.74922248 601.77053836 557.62586443 601.90066528 584.00570679 C601.90636536 584.92595139 601.91206543 585.84619598 601.91793823 586.79432678 C601.92734251 588.73822906 601.93390391 590.68214695 601.93777466 592.62606812 C601.94738685 595.53351495 601.97841526 598.44022502 602.01004028 601.34750366 C602.10172849 617.36718263 600.39135913 632.75775208 596.01004028 648.20492554 C595.75440308 649.11621216 595.49876587 650.02749878 595.23538208 650.96640015 C583.97250358 689.80402798 560.90679758 726.46827345 528.69754028 751.26742554 C527.96019653 751.89390991 527.22285278 752.52039429 526.46316528 753.16586304 C496.22723899 778.71000767 453.78436574 795.23709376 414.08816528 795.47055054 C413.28779846 795.47761017 412.48743164 795.4846698 411.66281128 795.49194336 C378.52850643 795.71785725 378.52850643 795.71785725 363.69754028 792.26742554 C362.80293091 792.06874878 361.90832153 791.87007202 360.98660278 791.66537476 C324.47389253 783.40919789 291.84441709 766.00794923 264.69754028 740.26742554 C263.26474731 738.91390991 263.26474731 738.91390991 261.80300903 737.53305054 C249.97206298 726.14920419 240.39486511 713.1545121 231.69754028 699.26742554 C231.31887817 698.66801147 230.94021606 698.06859741 230.55007935 697.45101929 C217.55841224 676.58322442 210.46753908 653.21547043 205.69754028 629.26742554 C205.69694319 630.06335753 205.69634611 630.85928952 205.69573092 631.67934066 C205.65976239 678.95297006 205.60300942 726.2265359 205.51961933 773.50010662 C205.50960302 779.18841514 205.4997587 784.87672395 205.49002075 790.56503296 C205.48710869 792.26354573 205.48710869 792.26354573 205.4841378 793.99637189 C205.45319739 812.28163186 205.43615945 830.5668793 205.42434606 848.85216049 C205.41189312 867.64330257 205.38429885 886.43437941 205.34292722 905.22548026 C205.31790989 916.80136178 205.30441435 928.37713497 205.30611071 939.9530439 C205.30614069 947.91327298 205.29133729 955.8733925 205.265376 963.8335788 C205.25086603 968.41206974 205.24240807 972.99033607 205.25173759 977.56884575 C205.36445631 1040.18802689 188.00493609 1092.84518876 143.69754028 1138.26742554 C111.70047934 1169.95533613 63.6808349 1192.14035037 18.44363403 1192.50570679 C17.46628799 1192.51377853 16.48894196 1192.52185028 15.48197937 1192.53016663 C13.41363257 1192.54394554 11.34526361 1192.55469514 9.27688599 1192.56259155 C7.20910743 1192.57399976 5.14135562 1192.59426934 3.07376099 1192.62411499 C-16.10991935 1192.90003936 -34.77478723 1190.94361149 -53.11495972 1185.01742554 C-54.05597534 1184.72150513 -54.99699097 1184.42558472 -55.96652222 1184.12069702 C-65.05942544 1181.17457792 -73.74087573 1177.50343511 -82.30245972 1173.26742554 C-83.30744507 1172.77025024 -83.30744507 1172.77025024 -84.33273315 1172.26303101 C-102.29562465 1163.25518218 -118.36723235 1151.48638355 -132.87033081 1137.63217163 C-134.24945025 1136.31794087 -135.64481184 1135.02081893 -137.04074097 1133.72445679 C-166.01608073 1106.00709126 -183.55051689 1068.11587816 -191.30245972 1029.26742554 C-191.49823608 1028.31980347 -191.69401245 1027.3721814 -191.89572144 1026.39584351 C-193.82218983 1015.79768956 -193.69925886 1005.12729028 -193.67745972 994.39242554 C-193.67691589 993.38953491 -193.67637207 992.38664429 -193.67581177 991.35336304 C-193.63893583 976.5888273 -193.05808559 962.61650648 -189.30245972 948.26742554 C-189.09347046 947.40472046 -188.8844812 946.54201538 -188.66915894 945.65316772 C-180.42917549 911.84146038 -163.07198698 880.53318373 -138.70089722 855.70101929 C-137.3496458 854.31579787 -136.02851592 852.90138942 -134.70870972 851.48617554 C-104.63606605 819.96424784 -61.15844302 800.49107329 -18.30245972 795.26742554 C-18.92475464 795.14738159 -19.54704956 795.02733765 -20.1882019 794.90365601 C-60.54364694 787.03249306 -96.3625872 772.97477406 -127.30245972 745.26742554 C-128.14816528 744.51429077 -128.14816528 744.51429077 -129.01095581 743.74594116 C-135.50750989 737.93639996 -141.85295245 732.09468633 -147.30245972 725.26742554 C-148.0694519 724.31480835 -148.83644409 723.36219116 -149.62667847 722.38070679 C-170.55407134 696.01340965 -185.08699769 665.39948365 -191.30245972 632.26742554 C-191.58174316 630.79438965 -191.58174316 630.79438965 -191.8666687 629.29159546 C-193.52352638 619.35265952 -193.64124509 609.51137974 -193.61813354 599.45614624 C-193.61498389 596.60183082 -193.63848171 593.74856613 -193.66378784 590.89437866 C-193.71947562 574.9974483 -191.96213623 559.65672368 -187.61495972 544.32992554 C-187.23150391 542.96299561 -187.23150391 542.96299561 -186.84030151 541.56845093 C-175.57742301 502.73082309 -152.51171701 466.06657762 -120.30245972 441.26742554 C-119.56511597 440.64094116 -118.82777222 440.01445679 -118.06808472 439.36898804 C-89.65302944 415.36316548 -54.39021796 403.57988228 -18.30245972 397.26742554 C-18.85893188 397.17767456 -19.41540405 397.08792358 -19.98873901 396.99545288 C-63.03553847 389.92734533 -101.11267648 372.96894927 -132.87033081 342.63217163 C-134.24945025 341.31794087 -135.64481184 340.02081893 -137.04074097 338.72445679 C-166.01608073 311.00709126 -183.55051689 273.11587816 -191.30245972 234.26742554 C-191.49823608 233.31980347 -191.69401245 232.3721814 -191.89572144 231.39584351 C-193.82218983 220.79768956 -193.69925886 210.12729028 -193.67745972 199.39242554 C-193.67691589 198.38953491 -193.67637207 197.38664429 -193.67581177 196.35336304 C-193.63893583 181.5888273 -193.05808559 167.61650648 -189.30245972 153.26742554 C-189.09347046 152.40472046 -188.8844812 151.54201538 -188.66915894 150.65316772 C-180.17720815 115.80754497 -161.97096133 85.06358012 -137.30245972 59.26742554 C-136.42847534 58.3405896 -135.55449097 57.41375366 -134.65402222 56.45883179 C-127.73546488 49.30695067 -120.31273179 43.13599469 -112.30245972 37.26742554 C-111.73607788 36.85138062 -111.16969604 36.43533569 -110.58615112 36.00668335 C-86.93389705 18.89018844 -59.87333338 7.83405313 -31.30245972 2.26742554 C-30.41233118 2.09367476 -29.52220264 1.91992398 -28.60510051 1.74090803 C-19.03145832 0.06935569 -9.6815051 -0.01890154 0 0 Z M204.69754028 398.26742554 C204.69754028 455.35742554 204.69754028 512.44742554 204.69754028 571.26742554 C205.02754028 571.26742554 205.35754028 571.26742554 205.69754028 571.26742554 C205.79252808 570.69524292 205.88751587 570.1230603 205.98538208 569.53353882 C214.91126811 516.4655707 240.25008457 468.60214227 284.27175903 436.36898804 C311.29015832 417.14977612 342.60307489 403.32266285 375.69754028 399.26742554 C375.69754028 398.93742554 375.69754028 398.60742554 375.69754028 398.26742554 C319.26754028 398.26742554 262.83754028 398.26742554 204.69754028 398.26742554 Z " fill="#A25AFE" transform="translate(396.3024597167969,3.732574462890625)"/>
<path d="M0 0 C1.83036585 -0.00374261 3.66073009 -0.00834655 5.49109185 -0.01373065 C10.49103507 -0.025901 15.49091108 -0.02570724 20.49086571 -0.02334189 C25.89536431 -0.0229322 31.29984179 -0.03398753 36.70433044 -0.04345703 C47.28282215 -0.06003628 57.86129156 -0.06556522 68.43979518 -0.06668179 C77.04531716 -0.06763392 85.65083181 -0.07175244 94.25635147 -0.07808304 C118.68823915 -0.09568865 143.1201093 -0.10492321 167.55200337 -0.10342209 C169.52573359 -0.10330222 169.52573359 -0.10330222 171.53933716 -0.10317993 C172.85677607 -0.10309817 174.17421499 -0.10301641 175.53157629 -0.10293217 C196.86448279 -0.10211992 218.19730546 -0.12124398 239.53019415 -0.14945666 C261.46765253 -0.17823841 283.40507649 -0.19199399 305.34255421 -0.19026911 C317.64537044 -0.18960694 329.94811257 -0.19502307 342.25091171 -0.21662521 C352.72938641 -0.23490694 363.20775345 -0.23912737 373.68623726 -0.22560637 C379.02380468 -0.2191113 384.36116596 -0.21883307 389.6987133 -0.23631287 C431.17805673 -0.36376128 431.17805673 -0.36376128 449.69754028 4.26742554 C450.92943022 4.56452234 452.16132015 4.86161915 453.43054008 5.16771889 C456.16193768 5.86224688 458.82882457 6.65096351 461.51004028 7.51742554 C462.4525061 7.81407104 463.39497192 8.11071655 464.36599731 8.41635132 C473.46466334 11.36623138 482.12168239 15.04940312 490.69754028 19.26742554 C491.40571899 19.6099939 492.11389771 19.95256226 492.84353638 20.30551147 C538.80114815 42.73558536 574.73246135 84.66867361 591.87722778 132.65023804 C595.2394236 142.63699358 597.63690127 152.94064182 599.69754028 163.26742554 C599.99120483 164.68885864 599.99120483 164.68885864 600.290802 166.13900757 C602.21727039 176.73716152 602.09433942 187.4075608 602.07254028 198.14242554 C602.07172455 199.64676147 602.07172455 199.64676147 602.07089233 201.18148804 C602.0340164 215.94602377 601.45316616 229.9183446 597.69754028 244.26742554 C597.3840564 245.56148315 597.3840564 245.56148315 597.0642395 246.88168335 C588.82425606 280.6933907 571.46706755 312.00166735 547.09597778 336.83383179 C545.74472637 338.21905321 544.42359649 339.63346165 543.10379028 341.04867554 C518.81537435 366.50761754 485.39477398 383.96855132 451.57254028 392.57992554 C450.66866577 392.81034546 449.76479126 393.04076538 448.83352661 393.27816772 C433.31102453 397.00652463 418.07114419 398.71711521 402.135849 398.65510559 C400.35051363 398.65929135 398.56518093 398.6647756 396.77985305 398.6714254 C391.93217964 398.68573616 387.08467831 398.68168085 382.23699605 398.67425859 C376.98595407 398.66949314 371.73494754 398.68206647 366.48391724 398.692276 C356.218724 398.70940436 345.95359213 398.71031634 335.68838833 398.7050631 C327.33711534 398.70100856 318.98586038 398.70248015 310.63458824 398.70781136 C309.44236048 398.70855978 308.25013272 398.7093082 307.02177685 398.7100793 C304.59912254 398.71161091 302.17646824 398.71314926 299.75381394 398.71469427 C277.0733904 398.72839806 254.39300142 398.72299684 231.71257868 398.71150906 C211.00798173 398.7015817 190.30347421 398.71451257 169.59889106 398.73844325 C148.29065055 398.76288424 126.98245161 398.77242968 105.67419738 398.76579052 C93.73082388 398.76230904 81.78751909 398.76445914 69.84415627 398.78204155 C59.6758321 398.79682632 49.50762502 398.79731761 39.33930299 398.77997064 C34.16156811 398.77150917 28.98404181 398.76919091 23.80631828 398.78462219 C-16.78764527 398.89681624 -16.78764527 398.89681624 -36.30245972 394.26742554 C-37.26860053 394.03898197 -38.23474135 393.8105384 -39.23015916 393.57517231 C-74.74151164 385.02711486 -106.44637381 367.87388815 -132.87033081 342.63217163 C-134.24945025 341.31794087 -135.64481184 340.02081893 -137.04074097 338.72445679 C-166.01608073 311.00709126 -183.55051689 273.11587816 -191.30245972 234.26742554 C-191.49823608 233.31980347 -191.69401245 232.3721814 -191.89572144 231.39584351 C-193.82218983 220.79768956 -193.69925886 210.12729028 -193.67745972 199.39242554 C-193.67691589 198.38953491 -193.67637207 197.38664429 -193.67581177 196.35336304 C-193.63893583 181.5888273 -193.05808559 167.61650648 -189.30245972 153.26742554 C-189.09347046 152.40472046 -188.8844812 151.54201538 -188.66915894 150.65316772 C-180.17720815 115.80754497 -161.97096133 85.06358012 -137.30245972 59.26742554 C-136.42847534 58.3405896 -135.55449097 57.41375366 -134.65402222 56.45883179 C-127.73546488 49.30695067 -120.31273179 43.13599469 -112.30245972 37.26742554 C-111.73607788 36.85138062 -111.16969604 36.43533569 -110.58615112 36.00668335 C-86.93389705 18.89018844 -59.87333338 7.83405313 -31.30245972 2.26742554 C-30.41233118 2.09367476 -29.52220264 1.91992398 -28.60510051 1.74090803 C-19.03145832 0.06935569 -9.6815051 -0.01890154 0 0 Z " fill="#FE7362" transform="translate(396.3024597167969,3.732574462890625)"/>
<path d="M0 0 C2.22431525 0.00061358 4.4486309 0.00034414 6.67294598 -0.00073051 C12.5977503 -0.00117968 18.52247287 0.01036225 24.447258 0.02449036 C30.01891826 0.03593017 35.59055924 0.03641931 41.16223145 0.0378418 C57.42741957 0.04831182 73.69259267 0.07623432 89.95776367 0.10205078 C144.50057617 0.16392578 144.50057617 0.16392578 200.14526367 0.22705078 C200.14526367 130.57705078 200.14526367 260.92705078 200.14526367 395.22705078 C144.33401367 395.31986328 144.33401367 395.31986328 87.39526367 395.41455078 C75.67414063 395.44186279 63.95301758 395.4691748 51.87670898 395.49731445 C37.49438477 395.51086426 37.49438477 395.51086426 30.74798584 395.51338196 C26.06548747 395.51616163 21.38309254 395.5273428 16.70062256 395.54377747 C10.70586543 395.56453546 4.71125616 395.57049117 -1.28353357 395.56626761 C-3.46987695 395.56714924 -5.65622614 395.57299019 -7.84253836 395.58469617 C-24.70889436 395.67072054 -41.66481311 394.7766432 -57.85473633 389.60205078 C-58.66539551 389.3497168 -59.47605469 389.09738281 -60.3112793 388.83740234 C-88.78141106 379.61599629 -115.09246602 363.55814167 -136.42114258 342.62548828 C-137.806364 341.27423687 -139.22077244 339.95310699 -140.63598633 338.63330078 C-169.61231061 310.98922129 -187.11600025 273.00931849 -194.85473633 234.22705078 C-195.0505127 233.27942871 -195.24628906 232.33180664 -195.44799805 231.35546875 C-197.37446644 220.7573148 -197.25153547 210.08691552 -197.22973633 199.35205078 C-197.2291925 198.34916016 -197.22864868 197.34626953 -197.22808838 196.31298828 C-197.19121244 181.54845255 -196.61036221 167.57613172 -192.85473633 153.22705078 C-192.64574707 152.3643457 -192.43675781 151.50164062 -192.22143555 150.61279297 C-183.72948477 115.76717021 -165.52323794 85.02320537 -140.85473633 59.22705078 C-139.98075195 58.30021484 -139.10676758 57.37337891 -138.20629883 56.41845703 C-131.28774149 49.26657591 -123.8650084 43.09561994 -115.85473633 37.22705078 C-115.28835449 36.81100586 -114.72197266 36.39496094 -114.13842773 35.96630859 C-90.47308774 18.84034375 -63.43007751 7.82443588 -34.85473633 2.22705078 C-34.00581975 2.05283159 -33.15690317 1.8786124 -32.28226185 1.69911385 C-21.54977721 -0.24209213 -10.87084627 -0.03938462 0 0 Z " fill="#F04E1C" transform="translate(399.854736328125,3.77294921875)"/>
<path d="M0 0 C2.18745989 -0.00107455 4.37491949 -0.0030158 6.56237793 -0.00575256 C12.46647413 -0.01057298 18.37049399 -0.00298292 24.27458096 0.00720048 C30.45870813 0.0160159 36.64283316 0.01422294 42.82696533 0.01383972 C53.19650544 0.01477406 63.56601615 0.02343137 73.93554688 0.03710938 C84.60743122 0.0511338 95.27928015 0.05827827 105.95117188 0.05761719 C118.83013714 0.05683191 131.7090888 0.06089902 144.58805084 0.07016563 C149.50512015 0.07370309 154.42218576 0.07552952 159.33925629 0.07605934 C165.11442244 0.07705989 170.88956143 0.08313268 176.66471863 0.09322548 C178.78965845 0.09615828 180.91460139 0.09737428 183.03954315 0.09679794 C185.92651759 0.09631099 188.8134147 0.10192553 191.70037842 0.10920715 C192.55238854 0.10765855 193.40439867 0.10610995 194.28222728 0.10451442 C200.04695296 0.12874007 200.04695296 0.12874007 201.16113281 1.24291992 C201.26787567 3.93870471 201.30891659 6.60917649 201.30830383 9.30575562 C201.31198052 10.16143997 201.31565721 11.01712432 201.31944531 11.8987385 C201.3305305 14.79000151 201.33433446 17.68122863 201.33813477 20.57250977 C201.34439681 22.63719803 201.35104338 24.70188516 201.35804749 26.76657104 C201.37915751 33.57899176 201.38947044 40.39141284 201.39941406 47.20385742 C201.40346193 49.55370724 201.40757886 51.90355694 201.41176414 54.25340652 C201.43084724 65.31607611 201.44506005 76.37873897 201.45337611 87.44142187 C201.46309853 100.16345501 201.48927291 112.88531183 201.52987701 125.607283 C201.56023333 135.46157286 201.57486414 145.31581285 201.57815713 155.17014849 C201.58048958 161.04246048 201.58920827 166.91458486 201.6146183 172.78684616 C201.88784667 239.43446759 187.85352658 294.35051353 140.16113281 343.24291992 C108.16407187 374.93083052 60.14442743 397.11584476 14.90722656 397.48120117 C13.92988052 397.48927292 12.95253448 397.49734467 11.9455719 397.50566101 C9.87722509 397.51943992 7.80885614 397.53018952 5.74047852 397.53808594 C3.67269996 397.54949415 1.60494815 397.56976372 -0.46264648 397.59960938 C-19.64632682 397.87553374 -38.3111947 395.91910587 -56.65136719 389.99291992 C-57.59238281 389.69699951 -58.53339844 389.4010791 -59.50292969 389.09619141 C-68.59583292 386.1500723 -77.27728321 382.4789295 -85.83886719 378.24291992 C-86.50885742 377.91146973 -87.17884766 377.58001953 -87.86914062 377.23852539 C-105.83203212 368.23067657 -121.90363982 356.46187794 -136.40673828 342.60766602 C-137.78585772 341.29343526 -139.18121931 339.99631331 -140.57714844 338.69995117 C-169.5524882 310.98258564 -187.08692437 273.09137254 -194.83886719 234.24291992 C-195.03464355 233.29529785 -195.23041992 232.34767578 -195.43212891 231.37133789 C-197.3585973 220.77318394 -197.23566633 210.10278466 -197.21386719 199.36791992 C-197.21332336 198.3650293 -197.21277954 197.36213867 -197.21221924 196.32885742 C-197.1753433 181.56432169 -196.59449306 167.59200086 -192.83886719 153.24291992 C-192.62987793 152.38021484 -192.42088867 151.51750977 -192.20556641 150.62866211 C-183.96558296 116.81695476 -166.60839446 85.50867811 -142.23730469 60.67651367 C-140.88605327 59.29129225 -139.56492339 57.87688381 -138.24511719 56.46166992 C-102.62255488 19.12235763 -50.86118657 -0.14564014 0 0 Z " fill="#0ACF84" transform="translate(399.8388671875,798.757080078125)"/>
<path d="M0 0 C1.16107269 -0.00807175 2.32214539 -0.01614349 3.5184021 -0.02445984 C5.97774787 -0.03826343 8.4371125 -0.04900216 10.89648438 -0.05688477 C13.37277985 -0.06832522 15.84905224 -0.08864845 18.32519531 -0.1184082 C38.98368903 -0.36618831 57.7931012 1.52002309 77.3984375 8.30078125 C78.52781738 8.6872583 79.65719727 9.07373535 80.82080078 9.47192383 C105.8758293 18.29824677 128.34342492 31.37610116 148.0234375 49.23828125 C149.06834233 50.16351546 150.11392527 51.08798438 151.16015625 52.01171875 C168.72433213 67.64775182 182.3966643 86.31843715 193.0234375 107.23828125 C193.38131348 107.93099121 193.73918945 108.62370117 194.10791016 109.33740234 C206.08897913 132.72007819 214.09643557 159.59672014 214.2265625 185.9765625 C214.23226257 186.8968071 214.23796265 187.8170517 214.24383545 188.7651825 C214.25323972 190.70908477 214.25980113 192.65300266 214.26367188 194.59692383 C214.27328406 197.50437066 214.30431248 200.41108073 214.3359375 203.31835938 C214.42762571 219.33803834 212.71725635 234.7286078 208.3359375 250.17578125 C208.08030029 251.08706787 207.82466309 251.99835449 207.5612793 252.93725586 C196.29840079 291.7748837 173.23269479 328.43912916 141.0234375 353.23828125 C140.28609375 353.86476563 139.54875 354.49125 138.7890625 355.13671875 C108.5531362 380.68086338 66.11026296 397.20794947 26.4140625 397.44140625 C25.61369568 397.44846588 24.81332886 397.45552551 23.9887085 397.46279907 C-9.14559636 397.68871296 -9.14559636 397.68871296 -23.9765625 394.23828125 C-24.87117187 394.03960449 -25.76578125 393.84092773 -26.6875 393.63623047 C-63.20021025 385.38005361 -95.82968569 367.97880495 -122.9765625 342.23828125 C-123.93175781 341.3359375 -124.88695312 340.43359375 -125.87109375 339.50390625 C-137.7020398 328.12005991 -147.27923767 315.12536781 -155.9765625 301.23828125 C-156.35522461 300.63886719 -156.73388672 300.03945313 -157.12402344 299.421875 C-172.37220108 274.92957232 -180.58394193 246.83442112 -182.9765625 218.23828125 C-183.14800781 217.08199219 -183.31945312 215.92570313 -183.49609375 214.734375 C-186.19682963 193.5154129 -184.28362568 171.83347714 -178.9765625 151.23828125 C-178.60984243 149.67497886 -178.24512764 148.11120415 -177.8828125 146.546875 C-166.06291531 97.87512917 -132.22505879 54.50696942 -89.9140625 28.42578125 C-62.71174139 12.11078776 -32.03748286 0.21493898 0 0 Z " fill="#19BCFD" transform="translate(783.9765625,401.76171875)"/>
<path d="M0 0 C1.2375 -0.020625 2.475 -0.04125 3.75 -0.0625 C4.44609375 -0.07410156 5.1421875 -0.08570313 5.859375 -0.09765625 C8 0 8 0 9.88047957 0.49743694 C12.01957297 1.00464098 13.85874938 1.13022596 16.05295181 1.1386652 C16.8551302 1.14413964 17.65730858 1.14961409 18.4837954 1.15525442 C19.35928025 1.15623253 20.2347651 1.15721064 21.13677979 1.15821838 C22.53848124 1.16562535 22.53848124 1.16562535 23.9684999 1.17318195 C27.10692781 1.18856817 30.24533525 1.19692065 33.38378906 1.20532227 C35.63065776 1.2148999 37.87752466 1.22490992 40.12438965 1.23532104 C46.2313845 1.26238855 52.33838708 1.28338815 58.44540882 1.30332303 C64.82492806 1.32517118 71.20442339 1.3525656 77.58392334 1.37937927 C88.29389471 1.42364398 99.00387287 1.46447656 109.71386719 1.50268555 C120.74512693 1.54205006 131.77637574 1.58347858 142.80761719 1.62768555 C143.48760129 1.63040982 144.16758538 1.63313409 144.86817506 1.63594092 C148.2794609 1.64962055 151.69074658 1.6633408 155.10203218 1.67708123 C183.40133195 1.79101639 211.70065573 1.89775925 240 2 C240 2.99 240 3.98 240 5 C212.25162886 5.09377197 184.50328175 5.1641394 156.75478363 5.20724869 C143.86836932 5.22780419 130.98205392 5.25578952 118.09570312 5.30175781 C106.85354874 5.34184153 95.61146606 5.36748365 84.36924219 5.37635398 C78.42601797 5.38153252 72.48299871 5.39355493 66.5398407 5.42292023 C60.92558422 5.45043098 55.31161363 5.45837435 49.69729614 5.45243073 C47.65618832 5.45351525 45.61506912 5.46125367 43.57402039 5.4768219 C28.69104577 5.58460269 14.60532715 3.84931285 0 1 C0 0.67 0 0.34 0 0 Z " fill="#E05A5A" transform="translate(360,397)"/>
<path d="M0 0 C0 0.33 0 0.66 0 1 C-11.4673924 3.35492116 -22.74214466 3.27037655 -34.39575195 3.22705078 C-36.53557327 3.22648574 -38.67539497 3.22680503 -40.81521606 3.22793579 C-46.58908996 3.22850669 -52.36287979 3.21679516 -58.13673425 3.20278788 C-64.18385908 3.19023646 -70.2309861 3.18910655 -76.27812195 3.18673706 C-87.71352332 3.18053522 -99.14888619 3.164142 -110.58427066 3.14403808 C-123.60971191 3.12163866 -136.63515506 3.1106755 -149.6606108 3.10064721 C-176.44042849 3.07977458 -203.22021208 3.0446239 -230 3 C-230 2.67 -230 2.34 -230 2 C-229.05690853 1.99576806 -228.11381706 1.99153612 -227.14214706 1.98717594 C-204.06616347 1.88342637 -180.99020783 1.77461346 -157.91427231 1.66066074 C-146.75438123 1.6056655 -135.59448697 1.55224371 -124.43457031 1.50268555 C-114.69392063 1.4594258 -104.95329128 1.41305145 -95.21267343 1.36312145 C-90.06754761 1.33685163 -84.92242495 1.31201584 -79.77727509 1.29092598 C-51.35634013 1.19428573 -51.35634013 1.19428573 -22.95052719 0.3395853 C-15.29637351 0.00293764 -7.6612 -0.04906946 0 0 Z " fill="#FEB8AE" transform="translate(830,399)"/>
<path d="M0 0 C0.33 0 0.66 0 1 0 C0.67 20.13 0.34 40.26 0 61 C-4.62816546 54.05775181 -3.21909155 43.84320329 -3.24023438 35.74902344 C-3.24985754 33.5328089 -3.28091344 31.31755717 -3.3125 29.1015625 C-3.38438256 19.08146793 -2.19317035 9.77168207 0 0 Z " fill="#4EB8FC" transform="translate(603,562)"/>
<path d="M0 0 C0 0.33 0 0.66 0 1 C-10.45142929 3.03934205 -20.50818149 3.26439982 -31.11328125 3.1953125 C-32.82105848 3.19157281 -34.52883788 3.18873037 -36.23661804 3.18673706 C-40.68677917 3.17917577 -45.13680546 3.15959369 -49.58691406 3.1373291 C-54.14581479 3.11670706 -58.70473774 3.1077007 -63.26367188 3.09765625 C-72.17583983 3.07633913 -81.08790861 3.04229626 -90 3 C-90 2.67 -90 2.34 -90 2 C-88.69256836 1.97494385 -87.38513672 1.9498877 -86.03808594 1.92407227 C-79.94200035 1.80636981 -73.84598575 1.68525932 -67.75 1.5625 C-66.65399475 1.54043488 -65.5579895 1.51836975 -64.42877197 1.49563599 C-50.53166652 1.21267018 -36.64089047 0.89463783 -22.75292969 0.30493164 C-15.16581761 -0.00732363 -7.59310727 -0.04415412 0 0 Z " fill="#DCAAAB" transform="translate(830,399)"/>
<path d="M0 0 C0.66 0.33 1.32 0.66 2 1 C-6.04614741 9.96570712 -14.42619082 18.53883941 -23 27 C-23.99 26.67 -24.98 26.34 -26 26 C-21.07414495 20.37755938 -16.02489284 14.91958753 -10.75 9.625 C-10.25532227 9.12581055 -9.76064453 8.62662109 -9.25097656 8.11230469 C-6.31677079 5.18992244 -3.28055031 2.5262632 0 0 Z " fill="#42CBFA" transform="translate(673,445)"/>
<path d="M0 0 C0.66 0.33 1.32 0.66 2 1 C-0.20649528 3.37671322 -2.41553494 5.7510476 -4.625 8.125 C-5.24246094 8.79015625 -5.85992187 9.4553125 -6.49609375 10.140625 C-10.25458196 14.17605445 -14.07645304 18.12474285 -18 22 C-18.99 21.67 -19.98 21.34 -21 21 C-14.32497556 13.59083582 -7.66925098 6.41040928 0 0 Z " fill="#BD83F9" transform="translate(273,447)"/>
<path d="M0 0 C0.66 0.33 1.32 0.66 2 1 C1.49210937 1.49628906 0.98421875 1.99257813 0.4609375 2.50390625 C-3.92843274 6.83573792 -8.05208718 11.26250461 -12 16 C-12.99 15.67 -13.98 15.34 -15 15 C-10.05 10.05 -5.1 5.1 0 0 Z " fill="#46E2A9" transform="translate(270,847)"/>
<path d="M0 0 C1.485 0.99 1.485 0.99 3 2 C3.625 5.3125 3.625 5.3125 4 9 C4.31966139 10.66934283 4.64731066 12.3373217 5 14 C5.66 14 6.32 14 7 14 C7.625 15.875 7.625 15.875 8 18 C7.34 18.66 6.68 19.32 6 20 C0.44419134 6.3667426 0.44419134 6.3667426 0 0 Z " fill="#F8906D" transform="translate(210,256)"/>
<path d="M0 0 C6.258654 -0.5326514 10.45108785 1.18150494 16 4 C12.06322574 5.31225809 10.2205738 4.3393954 6.3125 3.0625 C5.13300781 2.68222656 3.95351563 2.30195312 2.73828125 1.91015625 C1.83464844 1.60980469 0.93101562 1.30945313 0 1 C0 0.67 0 0.34 0 0 Z " fill="#52D2FB" transform="translate(734,788)"/>
<path d="M0 0 C-2.7596861 1.83979073 -4.29741882 2.48323221 -7.4375 3.1875 C-8.19933594 3.36667969 -8.96117187 3.54585937 -9.74609375 3.73046875 C-12.12958496 4.0154963 -13.73104204 3.72875415 -16 3 C-14.08802961 2.29954544 -12.17019565 1.615081 -10.25 0.9375 C-9.18265625 0.55464844 -8.1153125 0.17179688 -7.015625 -0.22265625 C-4.07719958 -0.98010011 -2.77651052 -1.07151741 0 0 Z " fill="#4CE5AC" transform="translate(348,807)"/>
<path d="M0 0 C1.21065165 3.63195496 0.62784815 5.06531629 -0.4375 8.6875 C-0.86869141 10.17830078 -0.86869141 10.17830078 -1.30859375 11.69921875 C-1.53675781 12.45847656 -1.76492188 13.21773437 -2 14 C-2.33 14 -2.66 14 -3 14 C-3.29341888 8.32723489 -3.00559652 5.00932754 0 0 Z " fill="#5ED5F9" transform="translate(992,646)"/>
<path d="M0 0 C12.53488372 1.53488372 12.53488372 1.53488372 16 5 C10.34979382 4.39891424 5.33835539 2.92471317 0 1 C0 0.67 0 0.34 0 0 Z " fill="#F88560" transform="translate(332,389)"/>
<path d="M0 0 C0.33 0.99 0.66 1.98 1 3 C1.66 3 2.32 3 3 3 C3 4.32 3 5.64 3 7 C3.66 7.33 4.32 7.66 5 8 C4.34 8.66 3.68 9.32 3 10 C-0.22265625 4.82421875 -0.22265625 4.82421875 -1 3 C-0.67 2.01 -0.34 1.02 0 0 Z " fill="#61D6F8" transform="translate(620,684)"/>
<path d="M0 0 C1.45606519 4.52092968 0.27032841 7.51648796 -1 12 C-1.33 12 -1.66 12 -2 12 C-2.05422947 10.5629191 -2.09289723 9.12524538 -2.125 7.6875 C-2.14820313 6.88699219 -2.17140625 6.08648438 -2.1953125 5.26171875 C-2 3 -2 3 0 0 Z " fill="#AA6AF5" transform="translate(210,548)"/>
<path d="M0 0 C0.6875 1.6875 0.6875 1.6875 1 4 C-0.3125 6.75 -0.3125 6.75 -2 9 C-2.66 9 -3.32 9 -4 9 C-2.94124926 5.59687262 -1.99097846 2.98646769 0 0 Z " fill="#C58EF8" transform="translate(230,498)"/>
<path d="M0 0 C-4.44 2.96 -4.44 2.96 -7 4 C-7.99 3.67 -8.98 3.34 -10 3 C-9.34 3 -8.68 3 -8 3 C-8 2.34 -8 1.68 -8 1 C-5.29120665 -0.35439668 -2.99066732 -0.06501451 0 0 Z " fill="#56D3FB" transform="translate(880,782)"/>
</svg>
